<svg width="32" height="32" viewBox="0 0 32 32" fill="none" xmlns="http://www.w3.org/2000/svg">
<g clip-path="url(#clip0_5779_971)">
<path d="M8.50729 5.83492C10.3408 8.89217 8.83538 12.7498 8.83538 12.7498C12.2492 13.826 12.4375 17.2728 12.4375 17.2728C12.5549 14.7559 14.6203 12.7462 17.1611 12.7605C19.7685 12.7686 21.8814 14.8579 21.8916 17.4805C21.8935 19.2966 20.8639 20.873 19.341 21.6715C23.6932 22.172 27.1585 18.7699 27.1688 14.7495C27.1765 10.8807 24.0238 7.74522 20.1733 7.75267C18.912 7.75308 17.5246 8.20255 16.3894 8.83022C16.3218 7.39024 17.1664 5.81437 17.1664 5.81437C15.6566 5.85486 14.7718 8.25856 14.7718 8.25856C13.0225 7.17789 10.9879 8.25976 10.9879 8.25976C10.1786 6.08201 9.14392 5.80893 8.70735 5.81618C8.57398 5.82867 8.50729 5.83492 8.50729 5.83492Z" fill="#1F1F1F"/>
<path d="M4.60598 14.1608C2.52463 14.5847 1.86654 17.2025 1.86654 17.2025C5.71455 15.3592 6.01886 18.0753 7.97309 21.9665C9.37952 24.7501 11.6324 27.4376 17.0559 27.5069C23.5589 27.5924 29.0479 21.8109 27.968 16.0035C27.9754 18.8807 23.7499 23.0041 20.0952 22.9852C11.7658 22.9972 10.9191 14.0232 5.70619 14.0146C5.34153 14.0216 4.98816 14.0542 4.60598 14.1608Z" fill="#1F1F1F"/>
</g>
<defs>
<clipPath id="clip0_5779_971">
<rect width="32" height="32" fill="white"/>
</clipPath>
</defs>
</svg>
