<svg width="24" height="24" viewBox="0 0 24 24" fill="none" xmlns="http://www.w3.org/2000/svg">
<g clip-path="url(#clip0_5411_4931)">
<path d="M16.8945 4.56238L14.5921 7.36624C14.4933 7.49957 14.6242 7.5982 14.6242 7.5982C15.5468 8.11859 16.2144 8.90498 16.7855 9.80549C16.8988 9.98415 17.0211 9.85437 17.0211 9.85437L19.9386 7.56967C19.9386 7.56967 20.064 7.49256 19.9542 7.3401C19.0999 6.15379 18.3239 5.31715 17.083 4.52733C17.083 4.52733 16.989 4.43469 16.8945 4.56238Z" fill="#1F1F1F"/>
<path d="M20.9787 9.13003L17.5307 10.8731C17.3669 10.9395 17.4489 11.0955 17.4489 11.0955C17.9252 12.281 18.2155 13.2818 18.4394 14.4944C18.4769 14.6975 18.6087 14.6324 18.6087 14.6324L22.4871 12.8713C22.4871 12.8713 22.6034 12.8258 22.5548 12.6696C22.3826 12.1148 21.5054 9.89993 21.1532 9.1761C21.1532 9.1761 21.0915 9.06635 20.9787 9.13003Z" fill="#1F1F1F"/>
<path d="M22.908 14.7293C22.1193 14.9833 18.8099 15.7804 18.8099 15.7804C18.6116 15.8443 18.6707 15.9999 18.6707 15.9999C18.899 17.88 18.8495 19.3149 18.8495 19.8106C18.8495 20.0304 19.0025 19.9981 19.0025 19.9981C19.8616 19.9981 23.8319 19.9981 23.8319 19.9981C24.0418 19.9981 23.9957 19.8003 23.9957 19.8003C23.9563 19.1741 23.7836 17.3919 23.1177 14.8369C23.1177 14.8369 23.0846 14.6723 22.908 14.7293Z" fill="#1F1F1F"/>
<path d="M7.10564 4.56238L9.40796 7.36624C9.50669 7.49957 9.37585 7.5982 9.37585 7.5982C8.45323 8.11859 7.78565 8.90498 7.21459 9.80549C7.10122 9.98415 6.97891 9.85437 6.97891 9.85437L4.06145 7.56967C4.06145 7.56967 3.93604 7.49256 4.04581 7.3401C4.90012 6.15379 5.67613 5.31715 6.91701 4.52733C6.91701 4.52733 7.01102 4.43469 7.10564 4.56238Z" fill="#1F1F1F"/>
<path d="M11.9999 6.96229C11.6124 6.96229 10.8949 7.00103 10.5562 7.05977C10.3793 7.09041 10.3356 6.96818 10.3356 6.96818L8.88633 3.8011C8.88633 3.8011 8.7893 3.68192 8.99228 3.60427C10.074 3.19037 10.6494 2.99994 11.9999 2.99994C13.3345 2.99994 13.926 3.19037 15.0079 3.60427C15.2107 3.68192 15.1138 3.8011 15.1138 3.8011L13.6646 6.96818C13.6646 6.96818 13.6208 7.09041 13.4438 7.05977C13.1052 7.00103 12.3876 6.96229 11.9999 6.96229Z" fill="#1F1F1F"/>
<path d="M3.02136 9.13003L6.46935 10.8731C6.63319 10.9395 6.55133 11.0955 6.55133 11.0955C6.07486 12.281 5.78461 13.2818 5.56066 14.4944C5.52314 14.6975 5.39151 14.6324 5.39151 14.6324L1.51303 12.8713C1.51303 12.8713 1.39673 12.8258 1.4453 12.6696C1.61757 12.1148 2.49473 9.89992 2.84688 9.1761C2.84688 9.1761 2.90858 9.06635 3.02136 9.13003Z" fill="#1F1F1F"/>
<path d="M1.09214 14.7293C1.88093 14.9833 5.19017 15.7804 5.19017 15.7804C5.3885 15.8443 5.32941 15.9999 5.32941 15.9999C5.10107 17.88 5.15072 19.3149 5.15072 19.8106C5.15072 20.0304 4.99772 19.9981 4.99772 19.9981C4.13851 19.9981 0.168207 19.9981 0.168207 19.9981C-0.0416821 19.9981 0.00437013 19.8003 0.00437013 19.8003C0.0437956 19.1741 0.216571 17.3919 0.882356 14.8369C0.882356 14.8369 0.915462 14.6723 1.09214 14.7293Z" fill="#1F1F1F"/>
</g>
<defs>
<clipPath id="clip0_5411_4931">
<rect width="24" height="17" fill="white" transform="translate(0 3)"/>
</clipPath>
</defs>
</svg>
