<svg width="24" height="24" viewBox="0 0 24 24" fill="none" xmlns="http://www.w3.org/2000/svg">
<path d="M11.217 19.384C11.5028 20.1536 12.05 20.7983 12.763 21.2054C13.4759 21.6125 14.3092 21.7562 15.1173 21.6112C15.9254 21.4662 16.6568 21.0418 17.1838 20.4123C17.7107 19.7827 17.9996 18.988 18 18.167V13L12 9.64999" stroke="currentColor" stroke-width="2" stroke-linecap="round" stroke-linejoin="round"/>
<path d="M5.21395 15.014C4.68992 15.6463 4.40485 16.4427 4.40861 17.264C4.41236 18.0852 4.7047 18.879 5.23449 19.5065C5.76428 20.134 6.49781 20.5553 7.30679 20.6967C8.11578 20.8381 8.94872 20.6906 9.65995 20.28L14 17.746V10.8" stroke="currentColor" stroke-width="2" stroke-linecap="round" stroke-linejoin="round"/>
<path d="M5.99994 7.63001C4.60894 7.39401 3.21294 8.02501 2.46594 9.31901C2.0054 10.1168 1.88057 11.0649 2.11892 11.9547C2.35727 12.8445 2.93927 13.6032 3.73694 14.064L7.99994 16.578L13.9999 13.23" stroke="currentColor" stroke-width="2" stroke-linecap="round" stroke-linejoin="round"/>
<path d="M12.783 4.61601C12.4972 3.84638 11.95 3.20167 11.2371 2.79457C10.5241 2.38746 9.6908 2.24385 8.88273 2.38883C8.07465 2.53382 7.34322 2.95818 6.81629 3.58774C6.28935 4.2173 6.00042 5.01203 6 5.83301V10.9L12 14.35" stroke="currentColor" stroke-width="2" stroke-linecap="round" stroke-linejoin="round"/>
<path d="M18.786 8.98599C19.31 8.35367 19.5951 7.55725 19.5913 6.73601C19.5876 5.91477 19.2953 5.12099 18.7655 4.49349C18.2357 3.86598 17.5021 3.44469 16.6932 3.30329C15.8842 3.1619 15.0512 3.3094 14.34 3.71999L10 6.25399V13.2" stroke="currentColor" stroke-width="2" stroke-linecap="round" stroke-linejoin="round"/>
<path d="M18 16.302C19.391 16.538 20.787 15.907 21.534 14.613C21.9945 13.8152 22.1194 12.8671 21.881 11.9773C21.6427 11.0875 21.0607 10.3288 20.263 9.868L15.955 7.354L10 10.774" stroke="currentColor" stroke-width="2" stroke-linecap="round" stroke-linejoin="round"/>
</svg>
