<svg width="90" height="24" viewBox="0 0 90 24" fill="none" xmlns="http://www.w3.org/2000/svg">
<path d="M20.9784 13.05L18.6456 9.00002L19.8768 6.93002C19.9752 6.75722 19.9752 6.54362 19.8768 6.37082L18.6456 4.30082C18.5832 4.18922 18.4644 4.11962 18.3336 4.11962H13.7856L12.7368 2.28362C12.6744 2.17202 12.5556 2.10242 12.4248 2.10242H9.99602C9.86522 2.10242 9.74642 2.17202 9.68402 2.28362L7.35122 6.33242H4.92242C4.79162 6.33242 4.67282 6.40202 4.61042 6.51362L3.37922 8.58362C3.28082 8.75642 3.28082 8.97002 3.37922 9.14282L5.46242 12.9L4.41362 14.736C4.31522 14.9088 4.31522 15.1224 4.41362 15.2952L5.64482 17.3652C5.70722 17.4768 5.82602 17.5464 5.95682 17.5464H10.5048L11.5536 19.3824C11.616 19.494 11.7348 19.5636 11.8656 19.5636H14.2944C14.4252 19.5636 14.544 19.494 14.6064 19.3824L16.9392 15.3336H19.0224C19.1532 15.3336 19.272 15.264 19.3344 15.1524L20.5656 13.0824C20.664 12.9096 20.664 12.696 20.5656 12.5232L20.9784 13.05Z" fill="#1F1F1F"/>
<path d="M14.2944 19.5636H11.8656L10.5048 17.3652H5.95675L7.35115 15.1668H9.68395L4.61035 6.63477H7.35115L9.99595 2.28357L11.2272 4.48197L9.99595 6.63477H19.3896L18.1584 8.70477L20.4911 12.7536H18.1584L16.9392 10.6008L12.1416 19.5636H14.2944Z" fill="white"/>
<path d="M15.3432 9.57959H9.13684L12.1416 14.6532L15.3432 9.57959Z" fill="#1F1F1F"/>
<path d="M46.3139 21.8699C45.5579 21.8699 44.8979 21.7739 44.3339 21.5819C43.7819 21.4019 43.3499 21.0659 43.0379 20.5739C42.7259 20.0939 42.5699 19.4099 42.5699 18.5219V16.6499H44.9459V18.6839C44.9459 19.0559 45.0479 19.3379 45.2519 19.5299C45.4679 19.7339 45.7559 19.8359 46.1159 19.8359H48.1679V21.8699H46.3139ZM43.7939 18.3419C42.6059 18.3419 41.5739 18.1319 40.6979 17.7119C39.8339 17.2919 39.1139 16.7459 38.5379 16.0739C37.9739 15.3899 37.5479 14.6579 37.2599 13.8779C36.9839 13.0859 36.8459 12.3239 36.8459 11.5919V11.1959C36.8459 10.3919 36.9899 9.59393 37.2779 8.80193C37.5659 7.99793 37.9979 7.27193 38.5739 6.62393C39.1619 5.97593 39.8879 5.45993 40.7519 5.07593C41.6159 4.67993 42.6299 4.48193 43.7939 4.48193C44.9459 4.48193 45.9539 4.67993 46.8179 5.07593C47.6819 5.45993 48.4019 5.97593 48.9779 6.62393C49.5659 7.27193 50.0039 7.99793 50.2919 8.80193C50.5799 9.59393 50.7239 10.3919 50.7239 11.1959V11.5919C50.7239 12.3239 50.5799 13.0859 50.2919 13.8779C50.0159 14.6579 49.5899 15.3899 49.0139 16.0739C48.4499 16.7459 47.7299 17.2919 46.8539 17.7119C45.9899 18.1319 44.9699 18.3419 43.7939 18.3419ZM43.7939 15.9659C44.4659 15.9659 45.0659 15.8459 45.5939 15.6059C46.1339 15.3659 46.5899 15.0359 46.9619 14.6159C47.3459 14.1839 47.6339 13.6979 47.8259 13.1579C48.0299 12.6059 48.1319 12.0239 48.1319 11.4119C48.1319 10.7519 48.0299 10.1459 47.8259 9.59393C47.6339 9.04193 47.3459 8.56193 46.9619 8.15393C46.5899 7.74593 46.1339 7.42793 45.5939 7.19993C45.0539 6.97193 44.4539 6.85793 43.7939 6.85793C43.1219 6.85793 42.5159 6.97193 41.9759 7.19993C41.4359 7.42793 40.9739 7.74593 40.5899 8.15393C40.2179 8.56193 39.9299 9.04193 39.7259 9.59393C39.5339 10.1459 39.4379 10.7519 39.4379 11.4119C39.4379 12.0239 39.5339 12.6059 39.7259 13.1579C39.9299 13.6979 40.2179 14.1839 40.5899 14.6159C40.9739 15.0359 41.4359 15.3659 41.9759 15.6059C42.5159 15.8459 43.1219 15.9659 43.7939 15.9659Z" fill="#1F1F1F"/>
<path d="M56.3442 17.9999L58.1982 8.54993H61.0782L63.2202 17.9999H61.2402L59.0622 8.60393H60.1062L58.1802 17.9999H56.3442ZM55.6062 17.9999L55.5882 15.9479H57.5862V17.9999H55.6062ZM54.5982 17.9999L51.9342 8.22593H54.3642L56.9022 17.9999H54.5982ZM61.8702 17.9999V15.9479H63.8682L63.8502 17.9999H61.8702ZM62.6622 17.9999L64.9122 8.22593H67.1802L64.8222 17.9999H62.6622Z" fill="#1F1F1F"/>
<path d="M73.3135 18.3419C72.4735 18.3419 71.7355 18.1979 71.0995 17.9099C70.4755 17.6219 69.9535 17.2379 69.5335 16.7579C69.1255 16.2659 68.8135 15.7199 68.5975 15.1199C68.3935 14.5199 68.2915 13.9079 68.2915 13.2839V12.9419C68.2915 12.2939 68.3935 11.6699 68.5975 11.0699C68.8135 10.4579 69.1255 9.91793 69.5335 9.44993C69.9535 8.96993 70.4695 8.59193 71.0815 8.31593C71.6935 8.02793 72.4015 7.88393 73.2055 7.88393C74.2615 7.88393 75.1435 8.11793 75.8515 8.58593C76.5715 9.04193 77.1115 9.64793 77.4715 10.4039C77.8315 11.1479 78.0115 11.9519 78.0115 12.8159V13.7159H69.3535V12.1859H76.4455L75.6715 12.9419C75.6715 12.3179 75.5815 11.7839 75.4015 11.3399C75.2215 10.8959 74.9455 10.5539 74.5735 10.3139C74.2135 10.0739 73.7575 9.95393 73.2055 9.95393C72.6535 9.95393 72.1855 10.0799 71.8015 10.3319C71.4175 10.5839 71.1235 10.9499 70.9195 11.4299C70.7275 11.8979 70.6315 12.4619 70.6315 13.1219C70.6315 13.7339 70.7275 14.2799 70.9195 14.7599C71.1115 15.2279 71.4055 15.5999 71.8015 15.8759C72.1975 16.1399 72.7015 16.2719 73.3135 16.2719C73.9255 16.2719 74.4235 16.1519 74.8075 15.9119C75.1915 15.6599 75.4375 15.3539 75.5455 14.9939H77.8495C77.7055 15.6659 77.4295 16.2539 77.0215 16.7579C76.6135 17.2619 76.0915 17.6519 75.4555 17.9279C74.8315 18.2039 74.1175 18.3419 73.3135 18.3419Z" fill="#1F1F1F"/>
<path d="M80.1016 17.9999V8.22593H82.0816V12.4199H81.9016C81.9016 11.4239 82.0336 10.5959 82.2976 9.93593C82.5616 9.26393 82.9516 8.75993 83.4676 8.42393C83.9956 8.08793 84.6496 7.91993 85.4296 7.91993H85.5376C86.7016 7.91993 87.5836 8.29793 88.1836 9.05393C88.7836 9.79793 89.0836 10.9139 89.0836 12.4019V17.9999H86.5816V12.1859C86.5816 11.5859 86.4076 11.0999 86.0596 10.7279C85.7236 10.3559 85.2556 10.1699 84.6556 10.1699C84.0436 10.1699 83.5456 10.3619 83.1616 10.7459C82.7896 11.1179 82.6036 11.6219 82.6036 12.2579V17.9999H80.1016Z" fill="#1F1F1F"/>
</svg>
