<svg width="24" height="24" viewBox="0 0 24 24" fill="none" xmlns="http://www.w3.org/2000/svg">
<path d="M20.9784 13.05L18.6456 9.00002L19.8768 6.93002C19.9752 6.75722 19.9752 6.54362 19.8768 6.37082L18.6456 4.30082C18.5832 4.18922 18.4644 4.11962 18.3336 4.11962H13.7856L12.7368 2.28362C12.6744 2.17202 12.5556 2.10242 12.4248 2.10242H9.99602C9.86522 2.10242 9.74642 2.17202 9.68402 2.28362L7.35122 6.33242H4.92242C4.79162 6.33242 4.67282 6.40202 4.61042 6.51362L3.37922 8.58362C3.28082 8.75642 3.28082 8.97002 3.37922 9.14282L5.46242 12.9L4.41362 14.736C4.31522 14.9088 4.31522 15.1224 4.41362 15.2952L5.64482 17.3652C5.70722 17.4768 5.82602 17.5464 5.95682 17.5464H10.5048L11.5536 19.3824C11.616 19.494 11.7348 19.5636 11.8656 19.5636H14.2944C14.4252 19.5636 14.544 19.494 14.6064 19.3824L16.9392 15.3336H19.0224C19.1532 15.3336 19.272 15.264 19.3344 15.1524L20.5656 13.0824C20.664 12.9096 20.664 12.696 20.5656 12.5232L20.9784 13.05Z" fill="#1F1F1F"/>
<path d="M14.2944 19.5636H11.8656L10.5048 17.3652H5.95675L7.35115 15.1668H9.68395L4.61035 6.63477H7.35115L9.99595 2.28357L11.2272 4.48197L9.99595 6.63477H19.3896L18.1584 8.70477L20.4911 12.7536H18.1584L16.9392 10.6008L12.1416 19.5636H14.2944Z" fill="white"/>
<path d="M15.3432 9.57959H9.13684L12.1416 14.6532L15.3432 9.57959Z" fill="#1F1F1F"/>
</svg>
